# xmcd
#
# Track frame offsets:
#	150
#	22625
#	83770
#	122360
#	162227
#	210537
#
# Disc length: 3372 seconds
#
# Revision: 1
# Processed by: cddbd v1.5.2PL0 Copyright (c) Steve Scherf et al.
# Submitted via: dBpowerAMP V4.0
#
DISCID=370d2a06
DTITLE=המיסתורי - בשבילך הכל עשיתי
DYEAR=2002
DGENRE=Blues
TTITLE0=שיר 
TTITLE1=שיר
TTITLE2=שיר
TTITLE3=שיר
TTITLE4=שיר
TTITLE5=שיר
EXTD=רצםכםיעךעה
EXTT0=
EXTT1=
EXTT2=
EXTT3=
EXTT4=
EXTT5=
PLAYORDER=
